<svg width="96" height="96" viewBox="0 0 96 96" fill="none" xmlns="http://www.w3.org/2000/svg">
<circle cx="48" cy="48" r="42" fill="#FEE500" stroke="#FAB122" stroke-width="12"/>
<path d="M36.653 30.8697H31.4058L37.5713 58.3299H43.0808L48.0656 38.2542L53.1816 58.3299H58.5599L65.155 30.8697H59.8856L55.5428 50.328L51.2139 30.8697H45.0485L40.4572 50.328L36.653 30.8697Z" fill="#FAB122"/>
<path d="M63.0151 39.7579C64.3153 42.1655 65.0533 44.9213 65.0533 47.8495C65.0533 57.2678 57.4183 64.9028 48 64.9028C38.5817 64.9028 30.9467 57.2678 30.9467 47.8495C30.9467 47.4072 30.9636 46.9689 30.9966 46.5351L27.9975 34.3362C25.3875 38.192 23.863 42.8427 23.863 47.8495C23.863 61.18 34.6695 71.9865 48 71.9865C61.3305 71.9865 72.137 61.18 72.137 47.8495C72.137 41.23 69.4723 35.2328 65.1571 30.8722L63.0151 39.7579Z" fill="#FAB122"/>
</svg>
