<svg width="24" height="24" viewBox="0 0 24 24" fill="none" xmlns="http://www.w3.org/2000/svg">
<path fill-rule="evenodd" clip-rule="evenodd" d="M12 24C18.6274 24 24 18.6274 24 12C24 5.37258 18.6274 0 12 0C5.37258 0 0 5.37258 0 12C0 18.6274 5.37258 24 12 24ZM15.909 9.81109C16.0194 9.541 16.0747 9.24942 16.0747 8.93637C16.0747 7.78849 15.7217 6.87693 15.0158 6.20171C14.6659 5.87024 14.227 5.61242 13.6991 5.42827C13.1774 5.23798 12.5697 5.14284 11.876 5.14284C11.2622 5.14284 10.7343 5.21343 10.2923 5.35461C9.85036 5.4958 9.47592 5.67995 9.169 5.90707C8.85594 6.14646 8.60734 6.40121 8.42319 6.6713C8.2329 6.95366 8.08558 7.23603 7.98122 7.5184C7.87687 7.80076 7.80628 8.06778 7.76945 8.31946C7.73262 8.56499 7.7142 8.77063 7.7142 8.93637C7.7142 9.29853 7.84311 9.59624 8.10092 9.8295C8.35873 10.0566 8.69635 10.1702 9.11376 10.1702C9.43909 10.1702 9.74908 10.0597 10.0437 9.83871C10.3445 9.61773 10.4949 9.28625 10.4949 8.84429C10.4949 8.46371 10.5839 8.13837 10.7619 7.86828C10.9461 7.5982 11.3174 7.46315 11.876 7.46315C12.1154 7.46315 12.3456 7.49691 12.5666 7.56443C12.7937 7.63196 12.9809 7.76393 13.1283 7.96036C13.2756 8.15679 13.3492 8.44529 13.3492 8.82587C13.3492 9.13279 13.2787 9.39061 13.1375 9.59931C12.9963 9.80188 12.8183 9.98603 12.6034 10.1518C12.4131 10.2991 12.183 10.4587 11.9129 10.6306C11.6673 10.784 11.4371 10.9651 11.2223 11.1738C11.0075 11.3764 10.8294 11.6188 10.6883 11.9012C10.5471 12.1959 10.4765 12.5457 10.4765 12.9509C10.4765 13.2455 10.5808 13.5217 10.7895 13.7796C10.9982 14.0374 11.3359 14.1663 11.8024 14.1663C12.2382 14.1663 12.5574 14.0589 12.76 13.844C12.9687 13.6292 13.073 13.356 13.073 13.0245C13.073 12.8956 13.0976 12.7821 13.1467 12.6839C13.1958 12.5795 13.2388 12.5028 13.2756 12.4537C13.3615 12.337 13.4904 12.2143 13.6623 12.0854C13.8403 11.9503 14.0337 11.8061 14.2424 11.6526L14.5554 11.4132C14.6598 11.3273 14.7672 11.2383 14.8777 11.1462C15.0926 10.962 15.289 10.7595 15.467 10.5385C15.645 10.3175 15.7923 10.075 15.909 9.81109ZM12.9902 17.8493C13.2541 17.5976 13.3861 17.2109 13.3861 16.6892C13.3861 16.1613 13.2602 15.7776 13.0086 15.5382C12.763 15.2988 12.3855 15.1791 11.876 15.1791C11.385 15.1791 11.0075 15.2988 10.7435 15.5382C10.4795 15.7776 10.3476 16.1613 10.3476 16.6892C10.3476 17.7081 10.8571 18.2176 11.876 18.2176C12.3548 18.2176 12.7262 18.0948 12.9902 17.8493Z" fill="url(#paint0_linear_1175_5591)"/>
<mask id="path-2-inside-1_1175_5591" fill="white">
<path d="M24 12C24 18.6274 18.6274 24 12 24C5.37258 24 0 18.6274 0 12C0 5.37258 5.37258 0 12 0C18.6274 0 24 5.37258 24 12Z"/>
</mask>
<path d="M23 12C23 18.0751 18.0751 23 12 23V25C19.1797 25 25 19.1797 25 12H23ZM12 23C5.92487 23 1 18.0751 1 12H-1C-1 19.1797 4.8203 25 12 25V23ZM1 12C1 5.92487 5.92487 1 12 1V-1C4.8203 -1 -1 4.8203 -1 12H1ZM12 1C18.0751 1 23 5.92487 23 12H25C25 4.8203 19.1797 -1 12 -1V1Z" fill="#606060" style="mix-blend-mode:screen" mask="url(#path-2-inside-1_1175_5591)"/>
<defs>
<linearGradient id="paint0_linear_1175_5591" x1="7.28571" y1="3" x2="16.7143" y2="21.8571" gradientUnits="userSpaceOnUse">
<stop stop-color="#E3E72D"/>
<stop offset="1" stop-color="#EFBA32"/>
</linearGradient>
</defs>
</svg>
