<svg width="120" height="160" viewBox="0 0 120 160" fill="none" xmlns="http://www.w3.org/2000/svg">
<g clip-path="url(#clip0_1175_5475)">
<path d="M106.507 83.1081C84.9042 78.8439 66.1215 54.5083 71.3165 28.6384" stroke="#DAB224" stroke-width="4.92214" stroke-linecap="round" stroke-linejoin="round"/>
<path d="M71.8127 27.9472C71.0759 29.9052 65.7573 26.3043 64.3017 18.5102C63.3255 13.2827 66.001 8.20711 67.9021 7.74409C69.8033 7.28108 72.3829 10.6881 72.9188 15.6529C73.5714 21.699 73.0209 25.6718 71.8127 27.9472Z" fill="url(#paint0_linear_1175_5475)" stroke="#DAB224" stroke-width="2.46107" stroke-linejoin="round"/>
<path d="M81.5513 65.6488C79.4276 66.7985 87.3734 67.9875 93.2325 62.6454C97.1621 59.0625 98.0863 53.3998 96.8484 51.8845C95.6105 50.3692 91.4317 51.1529 88.2599 55.0098C85.994 57.7652 85.0381 63.1239 81.5513 65.6488Z" fill="url(#paint1_linear_1175_5475)" stroke="#DAB224" stroke-width="2.46107" stroke-linejoin="round"/>
<path d="M72.9885 50.5663C70.6732 51.2526 78.2021 54.0571 85.0382 50.0403C89.6231 47.3463 91.697 41.9966 90.7987 40.2583C89.9004 38.52 85.6499 38.4237 81.7499 41.5423C78.9637 43.7703 76.9216 48.816 72.9885 50.5663Z" fill="url(#paint2_linear_1175_5475)" stroke="#DAB224" stroke-width="2.46107" stroke-linejoin="round"/>
<path d="M71.1435 34.7924C68.8699 35.6064 76.5432 37.9878 83.1453 33.5969C87.5733 30.652 89.3463 25.1953 88.3528 23.5096C87.3592 21.824 83.1099 21.9642 79.3894 25.295C76.7314 27.6745 74.9732 32.826 71.1435 34.7924Z" fill="url(#paint3_linear_1175_5475)" stroke="#DAB224" stroke-width="2.46107" stroke-linejoin="round"/>
<path d="M70.1561 41.9037C72.5161 42.4156 65.2171 45.7732 58.1007 42.2768C53.3278 39.9318 50.8612 34.7514 51.6275 32.951C52.3938 31.1506 56.6254 30.7379 60.7468 33.5574C63.6913 35.5717 66.1035 40.4512 70.1561 41.9037Z" fill="url(#paint4_linear_1175_5475)" stroke="#DAB224" stroke-width="2.46107" stroke-linejoin="round"/>
<path d="M75.041 60.352C77.4554 60.3034 71.1325 65.2602 63.3998 63.5071C58.2136 62.3313 54.6143 57.8631 54.9427 55.9342C55.2712 54.0053 59.2921 52.6238 63.9545 54.412C67.2854 55.6895 70.7623 59.8777 75.041 60.352Z" fill="url(#paint5_linear_1175_5475)" stroke="#DAB224" stroke-width="2.46107" stroke-linejoin="round"/>
<path d="M86.9317 75.7156C89.1807 74.836 84.959 81.6717 77.0967 82.6973C71.8235 83.3852 66.9024 80.4352 66.5444 78.5115C66.1864 76.5879 69.4827 73.9026 74.4758 73.9704C78.043 74.0188 82.7524 76.7483 86.9317 75.7156Z" fill="url(#paint6_linear_1175_5475)" stroke="#DAB224" stroke-width="2.46107" stroke-linejoin="round"/>
<path d="M100.415 114.213C82.8072 127.436 52.1512 125.149 36.3755 103.998" stroke="#DAB224" stroke-width="4.92214" stroke-linecap="round" stroke-linejoin="round"/>
<path d="M35.5188 102.362C36.4832 104.218 30.2503 105.769 23.479 101.644C18.9375 98.8772 16.949 93.4952 17.8748 91.7714C18.8006 90.0476 23.0592 90.4049 27.111 93.3236C32.0453 96.8781 34.6332 99.9422 35.5188 102.362Z" fill="url(#paint7_linear_1175_5475)" stroke="#DAB224" stroke-width="2.46107" stroke-linejoin="round"/>
<path d="M70.7497 121.114C70.1861 123.462 76.38 118.345 76.3205 110.416C76.2805 105.098 72.6851 100.627 70.7305 100.536C68.776 100.444 66.5668 104.077 67.317 109.014C67.853 112.541 71.2011 116.832 70.7497 121.114Z" fill="url(#paint8_linear_1175_5475)" stroke="#DAB224" stroke-width="2.46107" stroke-linejoin="round"/>
<path d="M53.807 117.406C52.7705 119.588 59.8877 115.86 61.4671 108.09C62.5263 102.879 59.9319 97.7612 58.0384 97.268C56.1449 96.7748 53.2331 99.8728 52.9474 104.858C52.7433 108.42 55.1328 113.311 53.807 117.406Z" fill="url(#paint9_linear_1175_5475)" stroke="#DAB224" stroke-width="2.46107" stroke-linejoin="round"/>
<path d="M40.8385 108.239C39.9249 110.475 46.8238 106.357 47.9685 98.5111C48.7362 93.249 45.8612 88.2836 43.9432 87.8965C42.0252 87.5094 39.2902 90.7646 39.2823 95.7582C39.2766 99.3257 41.9344 104.076 40.8385 108.239Z" fill="url(#paint10_linear_1175_5475)" stroke="#DAB224" stroke-width="2.46107" stroke-linejoin="round"/>
<path d="M45.4694 113.725C47.4272 112.312 45.0481 119.986 37.6918 122.944C32.7579 124.928 27.2556 123.302 26.4281 121.528C25.6007 119.755 28.1211 116.331 32.9727 115.149C36.4387 114.304 41.681 115.77 45.4694 113.725Z" fill="url(#paint11_linear_1175_5475)" stroke="#DAB224" stroke-width="2.46107" stroke-linejoin="round"/>
<path d="M62.4589 122.418C64.036 120.589 63.4989 128.606 57.0278 133.187C52.6876 136.26 46.9583 135.952 45.7427 134.419C44.527 132.886 46.1859 128.971 50.6317 126.697C53.8078 125.073 59.247 125.284 62.4589 122.418Z" fill="url(#paint12_linear_1175_5475)" stroke="#DAB224" stroke-width="2.46107" stroke-linejoin="round"/>
<path d="M81.8345 123.837C82.6828 121.576 84.9476 129.285 80.4572 135.819C77.4455 140.202 71.9625 141.892 70.2921 140.873C68.6217 139.854 68.8264 135.608 72.2132 131.938C74.6327 129.317 79.8103 127.637 81.8345 123.837Z" fill="url(#paint13_linear_1175_5475)" stroke="#DAB224" stroke-width="2.46107" stroke-linejoin="round"/>
</g>
<defs>
<linearGradient id="paint0_linear_1175_5475" x1="69.0172" y1="8.82238" x2="73.4648" y2="27.0933" gradientUnits="userSpaceOnUse">
<stop stop-color="#F4C20F"/>
<stop offset="0.265625" stop-color="#D2AA18"/>
<stop offset="0.46875" stop-color="#E7B912"/>
<stop offset="0.96875" stop-color="#EFBE10"/>
</linearGradient>
<linearGradient id="paint1_linear_1175_5475" x1="95.3093" y1="52.0743" x2="80.7482" y2="63.9731" gradientUnits="userSpaceOnUse">
<stop stop-color="#F4C20F"/>
<stop offset="0.265625" stop-color="#D2AA18"/>
<stop offset="0.46875" stop-color="#E7B912"/>
<stop offset="0.96875" stop-color="#EFBE10"/>
</linearGradient>
<linearGradient id="paint2_linear_1175_5475" x1="89.2536" y1="40.1262" x2="72.5489" y2="48.7609" gradientUnits="userSpaceOnUse">
<stop stop-color="#F4C20F"/>
<stop offset="0.265625" stop-color="#D2AA18"/>
<stop offset="0.46875" stop-color="#E7B912"/>
<stop offset="0.96875" stop-color="#EFBE10"/>
</linearGradient>
<linearGradient id="paint3_linear_1175_5475" x1="86.8027" y1="23.4636" x2="70.6041" y2="33.0142" gradientUnits="userSpaceOnUse">
<stop stop-color="#F4C20F"/>
<stop offset="0.265625" stop-color="#D2AA18"/>
<stop offset="0.46875" stop-color="#E7B912"/>
<stop offset="0.96875" stop-color="#EFBE10"/>
</linearGradient>
<linearGradient id="paint4_linear_1175_5475" x1="53.1585" y1="32.7042" x2="70.4601" y2="40.0705" gradientUnits="userSpaceOnUse">
<stop stop-color="#F4C20F"/>
<stop offset="0.265625" stop-color="#D2AA18"/>
<stop offset="0.46875" stop-color="#E7B912"/>
<stop offset="0.96875" stop-color="#EFBE10"/>
</linearGradient>
<linearGradient id="paint5_linear_1175_5475" x1="56.3749" y1="55.3395" x2="74.9121" y2="58.4984" gradientUnits="userSpaceOnUse">
<stop stop-color="#F4C20F"/>
<stop offset="0.265625" stop-color="#D2AA18"/>
<stop offset="0.46875" stop-color="#E7B912"/>
<stop offset="0.96875" stop-color="#EFBE10"/>
</linearGradient>
<linearGradient id="paint6_linear_1175_5475" x1="67.683" y1="77.4587" x2="86.1705" y2="74.0205" gradientUnits="userSpaceOnUse">
<stop stop-color="#F4C20F"/>
<stop offset="0.265625" stop-color="#D2AA18"/>
<stop offset="0.46875" stop-color="#E7B912"/>
<stop offset="0.96875" stop-color="#EFBE10"/>
</linearGradient>
<linearGradient id="paint7_linear_1175_5475" x1="19.4221" y1="91.6623" x2="35.9874" y2="100.562" gradientUnits="userSpaceOnUse">
<stop stop-color="#F4C20F"/>
<stop offset="0.265625" stop-color="#D2AA18"/>
<stop offset="0.46875" stop-color="#E7B912"/>
<stop offset="0.96875" stop-color="#EFBE10"/>
</linearGradient>
<linearGradient id="paint8_linear_1175_5475" x1="69.8434" y1="101.808" x2="68.9665" y2="120.592" gradientUnits="userSpaceOnUse">
<stop stop-color="#F4C20F"/>
<stop offset="0.265625" stop-color="#D2AA18"/>
<stop offset="0.46875" stop-color="#E7B912"/>
<stop offset="0.96875" stop-color="#EFBE10"/>
</linearGradient>
<linearGradient id="paint9_linear_1175_5475" x1="56.9077" y1="98.3293" x2="52.17" y2="116.527" gradientUnits="userSpaceOnUse">
<stop stop-color="#F4C20F"/>
<stop offset="0.265625" stop-color="#D2AA18"/>
<stop offset="0.46875" stop-color="#E7B912"/>
<stop offset="0.96875" stop-color="#EFBE10"/>
</linearGradient>
<linearGradient id="paint10_linear_1175_5475" x1="42.8732" y1="89.0191" x2="39.1551" y2="107.452" gradientUnits="userSpaceOnUse">
<stop stop-color="#F4C20F"/>
<stop offset="0.265625" stop-color="#D2AA18"/>
<stop offset="0.46875" stop-color="#E7B912"/>
<stop offset="0.96875" stop-color="#EFBE10"/>
</linearGradient>
<linearGradient id="paint11_linear_1175_5475" x1="27.2675" y1="120.224" x2="44.3087" y2="112.274" gradientUnits="userSpaceOnUse">
<stop stop-color="#F4C20F"/>
<stop offset="0.265625" stop-color="#D2AA18"/>
<stop offset="0.46875" stop-color="#E7B912"/>
<stop offset="0.96875" stop-color="#EFBE10"/>
</linearGradient>
<linearGradient id="paint12_linear_1175_5475" x1="46.2571" y1="132.956" x2="60.9937" y2="121.275" gradientUnits="userSpaceOnUse">
<stop stop-color="#F4C20F"/>
<stop offset="0.265625" stop-color="#D2AA18"/>
<stop offset="0.46875" stop-color="#E7B912"/>
<stop offset="0.96875" stop-color="#EFBE10"/>
</linearGradient>
<linearGradient id="paint13_linear_1175_5475" x1="70.2696" y1="139.323" x2="80.0647" y2="123.271" gradientUnits="userSpaceOnUse">
<stop stop-color="#F4C20F"/>
<stop offset="0.265625" stop-color="#D2AA18"/>
<stop offset="0.46875" stop-color="#E7B912"/>
<stop offset="0.96875" stop-color="#EFBE10"/>
</linearGradient>
<clipPath id="clip0_1175_5475">
<rect width="120" height="160" fill="white"/>
</clipPath>
</defs>
</svg>
