<svg width="120" height="160" viewBox="0 0 120 160" fill="none" xmlns="http://www.w3.org/2000/svg">
<g clip-path="url(#clip0_1175_5552)">
<path d="M13.4668 83.0972C35.0698 78.833 53.8526 54.4974 48.6576 28.6275" stroke="#DAB224" stroke-width="4.92214" stroke-linecap="round" stroke-linejoin="round"/>
<path d="M48.1614 27.9363C48.8981 29.8943 54.2167 26.2935 55.6723 18.4993C56.6485 13.2718 53.973 8.19623 52.0719 7.73321C50.1708 7.2702 47.5911 10.6773 47.0552 15.642C46.4026 21.6881 46.9532 25.6609 48.1614 27.9363Z" fill="url(#paint0_linear_1175_5552)" stroke="#DAB224" stroke-width="2.46107" stroke-linejoin="round"/>
<path d="M38.4228 65.6379C40.5464 66.7876 32.6006 67.9767 26.7415 62.6345C22.8119 59.0516 21.8877 53.3889 23.1256 51.8736C24.3636 50.3583 28.5424 51.142 31.7141 54.9989C33.9801 57.7543 34.936 63.113 38.4228 65.6379Z" fill="url(#paint1_linear_1175_5552)" stroke="#DAB224" stroke-width="2.46107" stroke-linejoin="round"/>
<path d="M46.9855 50.5554C49.3008 51.2417 41.772 54.0462 34.9358 50.0295C30.3509 47.3354 28.277 41.9857 29.1753 40.2474C30.0736 38.5091 34.3241 38.4128 38.2241 41.5314C41.0103 43.7594 43.0524 48.8052 46.9855 50.5554Z" fill="url(#paint2_linear_1175_5552)" stroke="#DAB224" stroke-width="2.46107" stroke-linejoin="round"/>
<path d="M48.8305 34.7815C51.1041 35.5955 43.4308 37.9769 36.8287 33.5861C32.4007 30.6412 30.6277 25.1844 31.6213 23.4987C32.6148 21.8131 36.8641 21.9533 40.5846 25.2841C43.2426 27.6636 45.0008 32.8151 48.8305 34.7815Z" fill="url(#paint3_linear_1175_5552)" stroke="#DAB224" stroke-width="2.46107" stroke-linejoin="round"/>
<path d="M49.8179 41.8928C47.4579 42.4047 54.7569 45.7623 61.8733 42.2659C66.6462 39.9209 69.1128 34.7405 68.3465 32.9402C67.5802 31.1398 63.3487 30.7271 59.2272 33.5465C56.2828 35.5608 53.8705 40.4404 49.8179 41.8928Z" fill="url(#paint4_linear_1175_5552)" stroke="#DAB224" stroke-width="2.46107" stroke-linejoin="round"/>
<path d="M44.933 60.3412C42.5186 60.2925 48.8415 65.2494 56.5742 63.4962C61.7604 62.3205 65.3598 57.8522 65.0313 55.9233C64.7028 53.9944 60.6819 52.6129 56.0195 54.4011C52.6886 55.6787 49.2118 59.8668 44.933 60.3412Z" fill="url(#paint5_linear_1175_5552)" stroke="#DAB224" stroke-width="2.46107" stroke-linejoin="round"/>
<path d="M33.0423 75.7047C30.7933 74.8251 35.015 81.6608 42.8773 82.6864C48.1505 83.3743 53.0716 80.4243 53.4296 78.5007C53.7876 76.577 50.4913 73.8917 45.4982 73.9595C41.9311 74.0079 37.2216 76.7374 33.0423 75.7047Z" fill="url(#paint6_linear_1175_5552)" stroke="#DAB224" stroke-width="2.46107" stroke-linejoin="round"/>
<path d="M19.5594 114.202C37.1669 127.425 67.8228 125.139 83.5985 103.988" stroke="#DAB224" stroke-width="4.92214" stroke-linecap="round" stroke-linejoin="round"/>
<path d="M84.4553 102.351C83.4908 104.207 89.7237 105.758 96.495 101.633C101.037 98.8664 103.025 93.4843 102.099 91.7605C101.173 90.0368 96.9148 90.394 92.863 93.3127C87.9287 96.8672 85.3409 99.9313 84.4553 102.351Z" fill="url(#paint7_linear_1175_5552)" stroke="#DAB224" stroke-width="2.46107" stroke-linejoin="round"/>
<path d="M49.2243 121.103C49.7879 123.451 43.594 118.334 43.6535 110.405C43.6935 105.088 47.2889 100.616 49.2435 100.525C51.198 100.433 53.4072 104.066 52.657 109.003C52.1211 112.53 48.773 116.822 49.2243 121.103Z" fill="url(#paint8_linear_1175_5552)" stroke="#DAB224" stroke-width="2.46107" stroke-linejoin="round"/>
<path d="M66.1671 117.396C67.2036 119.577 60.0863 115.849 58.5069 108.079C57.4477 102.868 60.0421 97.7504 61.9356 97.2572C63.8291 96.7639 66.7409 99.862 67.0266 104.847C67.2307 108.409 64.8412 113.3 66.1671 117.396Z" fill="url(#paint9_linear_1175_5552)" stroke="#DAB224" stroke-width="2.46107" stroke-linejoin="round"/>
<path d="M79.1356 108.228C80.0491 110.464 73.1502 106.346 72.0055 98.5002C71.2378 93.2381 74.1128 88.2728 76.0308 87.8857C77.9488 87.4985 80.6838 90.7537 80.6918 95.7473C80.6974 99.3148 78.0396 104.065 79.1356 108.228Z" fill="url(#paint10_linear_1175_5552)" stroke="#DAB224" stroke-width="2.46107" stroke-linejoin="round"/>
<path d="M74.5046 113.715C72.5468 112.301 74.9259 119.975 82.2823 122.933C87.2161 124.917 92.7184 123.291 93.5459 121.518C94.3733 119.745 91.8529 116.32 87.0013 115.138C83.5353 114.293 78.2931 115.759 74.5046 113.715Z" fill="url(#paint11_linear_1175_5552)" stroke="#DAB224" stroke-width="2.46107" stroke-linejoin="round"/>
<path d="M57.5151 122.407C55.938 120.578 56.4751 128.595 62.9462 133.176C67.2864 136.249 73.0158 135.941 74.2314 134.408C75.447 132.875 73.7881 128.96 69.3423 126.686C66.1662 125.062 60.727 125.274 57.5151 122.407Z" fill="url(#paint12_linear_1175_5552)" stroke="#DAB224" stroke-width="2.46107" stroke-linejoin="round"/>
<path d="M38.1396 123.826C37.2912 121.565 35.0264 129.274 39.5168 135.809C42.5285 140.191 48.0115 141.882 49.6819 140.863C51.3523 139.844 51.1476 135.597 47.7609 131.927C45.3413 129.306 40.1637 127.626 38.1396 123.826Z" fill="url(#paint13_linear_1175_5552)" stroke="#DAB224" stroke-width="2.46107" stroke-linejoin="round"/>
</g>
<defs>
<linearGradient id="paint0_linear_1175_5552" x1="50.9568" y1="8.8115" x2="46.5093" y2="27.0824" gradientUnits="userSpaceOnUse">
<stop stop-color="#F4C20F"/>
<stop offset="0.265625" stop-color="#D2AA18"/>
<stop offset="0.46875" stop-color="#E7B912"/>
<stop offset="0.96875" stop-color="#EFBE10"/>
</linearGradient>
<linearGradient id="paint1_linear_1175_5552" x1="24.6648" y1="52.0635" x2="39.2258" y2="63.9623" gradientUnits="userSpaceOnUse">
<stop stop-color="#F4C20F"/>
<stop offset="0.265625" stop-color="#D2AA18"/>
<stop offset="0.46875" stop-color="#E7B912"/>
<stop offset="0.96875" stop-color="#EFBE10"/>
</linearGradient>
<linearGradient id="paint2_linear_1175_5552" x1="30.7204" y1="40.1153" x2="47.4252" y2="48.75" gradientUnits="userSpaceOnUse">
<stop stop-color="#F4C20F"/>
<stop offset="0.265625" stop-color="#D2AA18"/>
<stop offset="0.46875" stop-color="#E7B912"/>
<stop offset="0.96875" stop-color="#EFBE10"/>
</linearGradient>
<linearGradient id="paint3_linear_1175_5552" x1="33.1713" y1="23.4528" x2="49.3699" y2="33.0033" gradientUnits="userSpaceOnUse">
<stop stop-color="#F4C20F"/>
<stop offset="0.265625" stop-color="#D2AA18"/>
<stop offset="0.46875" stop-color="#E7B912"/>
<stop offset="0.96875" stop-color="#EFBE10"/>
</linearGradient>
<linearGradient id="paint4_linear_1175_5552" x1="66.8155" y1="32.6933" x2="49.514" y2="40.0597" gradientUnits="userSpaceOnUse">
<stop stop-color="#F4C20F"/>
<stop offset="0.265625" stop-color="#D2AA18"/>
<stop offset="0.46875" stop-color="#E7B912"/>
<stop offset="0.96875" stop-color="#EFBE10"/>
</linearGradient>
<linearGradient id="paint5_linear_1175_5552" x1="63.5991" y1="55.3286" x2="45.0619" y2="58.4875" gradientUnits="userSpaceOnUse">
<stop stop-color="#F4C20F"/>
<stop offset="0.265625" stop-color="#D2AA18"/>
<stop offset="0.46875" stop-color="#E7B912"/>
<stop offset="0.96875" stop-color="#EFBE10"/>
</linearGradient>
<linearGradient id="paint6_linear_1175_5552" x1="52.291" y1="77.4478" x2="33.8036" y2="74.0096" gradientUnits="userSpaceOnUse">
<stop stop-color="#F4C20F"/>
<stop offset="0.265625" stop-color="#D2AA18"/>
<stop offset="0.46875" stop-color="#E7B912"/>
<stop offset="0.96875" stop-color="#EFBE10"/>
</linearGradient>
<linearGradient id="paint7_linear_1175_5552" x1="100.552" y1="91.6515" x2="83.9867" y2="100.551" gradientUnits="userSpaceOnUse">
<stop stop-color="#F4C20F"/>
<stop offset="0.265625" stop-color="#D2AA18"/>
<stop offset="0.46875" stop-color="#E7B912"/>
<stop offset="0.96875" stop-color="#EFBE10"/>
</linearGradient>
<linearGradient id="paint8_linear_1175_5552" x1="50.1306" y1="101.797" x2="51.0076" y2="120.581" gradientUnits="userSpaceOnUse">
<stop stop-color="#F4C20F"/>
<stop offset="0.265625" stop-color="#D2AA18"/>
<stop offset="0.46875" stop-color="#E7B912"/>
<stop offset="0.96875" stop-color="#EFBE10"/>
</linearGradient>
<linearGradient id="paint9_linear_1175_5552" x1="63.0664" y1="98.3184" x2="67.804" y2="116.516" gradientUnits="userSpaceOnUse">
<stop stop-color="#F4C20F"/>
<stop offset="0.265625" stop-color="#D2AA18"/>
<stop offset="0.46875" stop-color="#E7B912"/>
<stop offset="0.96875" stop-color="#EFBE10"/>
</linearGradient>
<linearGradient id="paint10_linear_1175_5552" x1="77.1008" y1="89.0082" x2="80.8189" y2="107.441" gradientUnits="userSpaceOnUse">
<stop stop-color="#F4C20F"/>
<stop offset="0.265625" stop-color="#D2AA18"/>
<stop offset="0.46875" stop-color="#E7B912"/>
<stop offset="0.96875" stop-color="#EFBE10"/>
</linearGradient>
<linearGradient id="paint11_linear_1175_5552" x1="92.7065" y1="120.214" x2="75.6653" y2="112.264" gradientUnits="userSpaceOnUse">
<stop stop-color="#F4C20F"/>
<stop offset="0.265625" stop-color="#D2AA18"/>
<stop offset="0.46875" stop-color="#E7B912"/>
<stop offset="0.96875" stop-color="#EFBE10"/>
</linearGradient>
<linearGradient id="paint12_linear_1175_5552" x1="73.7169" y1="132.945" x2="58.9804" y2="121.264" gradientUnits="userSpaceOnUse">
<stop stop-color="#F4C20F"/>
<stop offset="0.265625" stop-color="#D2AA18"/>
<stop offset="0.46875" stop-color="#E7B912"/>
<stop offset="0.96875" stop-color="#EFBE10"/>
</linearGradient>
<linearGradient id="paint13_linear_1175_5552" x1="49.7044" y1="139.312" x2="39.9093" y2="123.26" gradientUnits="userSpaceOnUse">
<stop stop-color="#F4C20F"/>
<stop offset="0.265625" stop-color="#D2AA18"/>
<stop offset="0.46875" stop-color="#E7B912"/>
<stop offset="0.96875" stop-color="#EFBE10"/>
</linearGradient>
<clipPath id="clip0_1175_5552">
<rect width="120" height="160" fill="white"/>
</clipPath>
</defs>
</svg>
